<?xml version="1.0" standalone="no"?>
<!DOCTYPE svg PUBLIC "-//W3C//DTD SVG 20010904//EN"
 "http://www.w3.org/TR/2001/REC-SVG-20010904/DTD/svg10.dtd">
<svg version="1.0" xmlns="http://www.w3.org/2000/svg"
 width="742.000000pt" height="742.000000pt" viewBox="0 0 742.000000 742.000000"
 preserveAspectRatio="xMidYMid meet">
<metadata>
Created by potrace 1.11, written by Peter Selinger 2001-2013
</metadata>
<g transform="translate(0.000000,742.000000) scale(0.100000,-0.100000)"
fill="#000000" stroke="none">
<path d="M3550 7127 c-3 -3 -43 -8 -90 -12 -47 -4 -90 -11 -96 -16 -6 -5 -13
-7 -16 -4 -5 5 -99 -11 -128 -22 -8 -3 -22 -7 -30 -8 -41 -4 -150 -39 -150
-47 0 -5 -4 -7 -9 -4 -12 8 -101 -24 -101 -36 0 -5 -4 -7 -10 -3 -5 3 -40 -9
-77 -26 -37 -18 -70 -33 -73 -33 -11 -2 -155 -80 -160 -86 -3 -3 -13 -9 -22
-13 -28 -10 -190 -121 -226 -155 -18 -17 -35 -31 -38 -31 -15 -1 -82 -66 -77
-74 3 -6 2 -7 -4 -4 -6 4 -54 -40 -108 -96 -131 -138 -135 -143 -189 -217 -25
-36 -49 -69 -54 -75 -45 -58 -153 -251 -145 -259 4 -3 2 -6 -4 -6 -9 0 -100
-198 -108 -234 -1 -6 -7 -23 -13 -38 -28 -69 -86 -314 -96 -408 -3 -25 -9 -67
-13 -95 -12 -78 -8 -390 6 -490 17 -118 61 -319 71 -323 4 -2 6 -12 3 -22 -3
-12 0 -20 6 -20 7 0 10 -4 7 -8 -7 -12 15 -82 26 -82 5 0 7 -4 3 -9 -3 -5 1
-25 9 -43 8 -18 29 -68 47 -110 18 -43 37 -78 42 -78 6 0 8 -3 4 -6 -8 -8 31
-84 43 -84 5 0 7 -6 4 -13 -3 -8 2 -20 11 -27 8 -7 15 -16 15 -21 0 -4 38 -72
84 -151 45 -79 97 -168 114 -198 111 -199 190 -329 197 -322 5 4 6 2 2 -3 -6
-11 57 -128 65 -120 2 3 5 -1 5 -8 0 -7 17 -43 39 -81 21 -37 53 -92 70 -123
17 -30 37 -59 45 -64 8 -5 10 -9 6 -9 -5 0 4 -22 20 -49 15 -27 31 -47 37 -44
5 3 6 1 2 -5 -6 -10 61 -134 76 -140 5 -2 8 -8 8 -13 0 -5 33 -67 73 -137 40
-70 80 -138 88 -152 8 -14 16 -27 19 -30 3 -3 18 -30 34 -60 16 -30 33 -60 37
-66 5 -6 23 -37 40 -70 17 -32 36 -64 42 -69 7 -6 13 -17 15 -25 2 -8 11 -26
20 -40 9 -14 27 -45 40 -70 14 -25 30 -52 37 -60 7 -8 14 -20 16 -26 10 -27
204 -354 210 -354 4 0 24 15 43 34 20 18 36 31 36 28 0 -3 38 34 85 82 77 78
205 238 205 254 -1 18 -48 81 -55 74 -4 -4 -5 -2 -2 5 6 9 -44 104 -112 213
-8 14 -24 41 -35 60 -10 19 -24 38 -30 42 -6 4 -8 8 -4 8 4 0 -29 61 -73 136
-43 75 -79 140 -79 144 0 5 -3 10 -7 12 -5 2 -21 29 -38 60 -16 31 -34 54 -40
51 -5 -4 -7 -3 -3 2 8 8 -49 117 -64 123 -4 2 -6 8 -2 13 3 5 0 9 -5 9 -6 0
-11 5 -11 11 0 6 -15 37 -34 68 -19 31 -48 81 -65 111 -47 82 -111 193 -121
210 -5 8 -33 56 -61 105 -115 201 -174 300 -182 306 -5 3 -8 9 -7 13 2 11
-216 386 -222 381 -2 -3 -5 1 -5 9 0 16 -92 178 -108 188 -5 4 -6 8 -1 8 4 0
0 12 -9 26 -27 41 -71 133 -96 202 -13 34 -28 62 -32 62 -5 0 -6 4 -3 9 4 5 1
22 -5 38 -13 33 -58 223 -65 273 -2 19 -6 121 -8 226 -3 176 -1 201 24 325 15
74 26 137 24 141 -2 3 -1 8 3 10 5 1 19 37 32 78 13 41 32 92 43 113 10 21 16
42 13 46 -3 5 -2 11 3 13 4 1 23 32 41 68 32 61 136 229 150 240 3 3 19 23 36
45 37 50 171 185 245 246 64 54 260 185 290 194 3 1 32 14 65 29 104 48 119
54 175 71 30 10 60 20 65 24 6 3 15 6 20 6 6 0 44 8 85 18 237 54 523 55 750
0 36 -8 72 -16 80 -18 8 -1 26 -7 40 -12 14 -5 50 -18 80 -28 154 -52 351
-163 495 -279 68 -55 181 -168 242 -243 28 -34 53 -60 55 -57 3 2 5 -2 5 -9 1
-20 90 -146 99 -139 4 4 4 1 0 -6 -4 -7 -2 -19 4 -27 17 -21 79 -151 106 -225
14 -36 28 -72 31 -80 3 -8 8 -26 10 -39 2 -14 8 -32 13 -40 4 -9 11 -37 15
-64 4 -26 11 -50 16 -53 5 -3 7 -9 4 -14 -3 -5 -1 -28 4 -52 10 -47 25 -218
22 -259 -1 -25 2 -27 76 -39 80 -12 292 -64 348 -84 100 -37 93 -36 99 -7 3
14 3 89 0 166 -6 175 -4 158 -15 235 -5 36 -12 81 -15 100 -6 47 -45 213 -52
225 -3 5 -7 21 -8 34 -2 14 -8 27 -14 29 -5 2 -8 8 -5 12 14 23 -120 323 -210
470 -67 111 -154 230 -167 230 -5 0 -7 4 -4 9 3 5 -10 23 -29 40 -20 17 -32
31 -28 31 16 0 -176 186 -272 263 -109 88 -242 178 -320 217 -28 14 -52 27
-55 31 -13 14 -92 49 -101 44 -5 -4 -9 -2 -9 3 0 12 -49 34 -61 27 -5 -4 -9
-2 -9 3 0 12 -139 64 -151 56 -5 -3 -9 -1 -9 5 0 5 -15 12 -32 16 -18 4 -51
13 -73 20 -22 7 -53 16 -70 19 -16 3 -64 12 -105 21 -41 8 -104 18 -140 22
-80 8 -434 16 -440 10z"/>
<path d="M2926 4733 c-1 -2 -160 -3 -353 -3 l-351 -1 4 -32 c6 -41 11 -64 20
-102 3 -16 6 -38 6 -47 0 -10 3 -18 9 -18 5 0 8 -3 8 -7 -1 -5 0 -10 1 -13 2
-5 9 -46 12 -67 1 -7 5 -13 10 -13 4 0 7 -3 7 -7 -1 -5 -1 -10 1 -13 1 -3 4
-16 6 -30 2 -13 10 -28 17 -32 6 -4 8 -8 3 -8 -5 0 -3 -7 4 -15 7 -8 9 -15 5
-15 -5 0 -1 -8 8 -17 8 -10 16 -22 17 -28 5 -23 20 -55 27 -56 5 0 658 -2
1453 -4 795 -2 1463 -6 1485 -10 22 -3 51 -7 65 -8 14 -2 31 -7 38 -11 8 -4
16 -6 19 -3 2 3 21 0 41 -7 21 -7 45 -12 55 -10 9 1 17 -3 17 -9 0 -5 3 -7 7
-4 3 4 12 2 19 -3 6 -6 16 -10 20 -9 5 1 23 -3 39 -10 17 -7 35 -14 40 -15 6
-1 16 -5 23 -9 6 -5 17 -5 22 -2 6 3 10 1 10 -5 0 -6 5 -8 10 -5 6 3 10 1 10
-6 0 -7 3 -9 7 -6 3 4 17 0 30 -8 13 -9 23 -13 23 -10 0 4 7 -1 16 -9 8 -9 20
-14 25 -11 5 4 9 1 9 -5 0 -6 5 -8 10 -5 6 3 10 1 10 -4 0 -6 9 -11 20 -11 11
0 20 -4 20 -10 0 -5 10 -14 21 -21 17 -9 20 -8 14 3 -3 7 0 5 8 -4 8 -10 17
-18 20 -18 11 0 132 -84 140 -97 4 -7 13 -13 19 -13 5 0 19 -11 30 -25 11 -14
25 -25 33 -25 7 0 16 -7 19 -16 3 -8 11 -12 17 -8 8 5 9 3 5 -5 -5 -8 -1 -14
12 -18 11 -2 25 -16 31 -29 6 -13 18 -24 27 -24 10 0 15 -3 11 -6 -3 -3 10
-21 29 -40 19 -19 34 -39 34 -44 0 -5 15 -21 33 -35 17 -15 25 -24 17 -20 -8
3 -4 -3 10 -15 14 -12 25 -26 25 -31 0 -4 9 -15 20 -24 11 -9 13 -14 5 -10 -9
4 -6 -2 5 -12 11 -10 21 -25 23 -33 2 -8 11 -21 20 -28 9 -7 16 -15 15 -17 -7
-12 -2 -26 7 -20 6 3 10 0 10 -7 0 -17 42 -101 55 -110 6 -4 6 -8 2 -8 -5 0
-1 -10 7 -22 9 -12 16 -30 16 -40 0 -10 5 -18 11 -18 5 0 7 -4 4 -10 -3 -5 -1
-10 4 -10 6 0 10 -3 10 -7 -5 -28 2 -53 13 -47 7 5 9 2 5 -8 -3 -9 -3 -19 1
-22 6 -7 12 -30 14 -53 1 -7 5 -13 9 -13 5 0 6 -7 3 -15 -4 -8 -2 -15 4 -15 6
0 8 -9 5 -20 -3 -11 -1 -20 4 -20 5 0 9 -10 10 -22 1 -22 10 -73 13 -73 2 0 9
-51 16 -110 7 -68 7 -338 0 -400 -10 -89 -15 -114 -32 -185 -3 -14 -7 -33 -8
-42 -1 -10 -5 -20 -8 -24 -4 -3 -4 -12 -1 -20 3 -8 0 -14 -7 -14 -7 0 -10 -6
-7 -14 3 -7 1 -18 -3 -22 -5 -5 -11 -21 -14 -34 -2 -14 -5 -27 -6 -30 -2 -3
-2 -8 -1 -12 0 -5 -4 -8 -9 -8 -5 0 -9 -3 -8 -7 1 -5 -3 -17 -9 -28 -6 -11
-12 -23 -12 -27 -1 -5 -13 -34 -28 -65 -15 -32 -26 -61 -25 -65 1 -5 -3 -8 -8
-8 -6 0 -10 -6 -10 -14 0 -7 -7 -19 -15 -26 -8 -7 -12 -16 -9 -21 3 -5 0 -9
-7 -9 -7 0 -9 -3 -6 -7 4 -3 -1 -12 -11 -20 -11 -10 -12 -12 -2 -8 8 4 6 -2
-6 -12 -25 -22 -84 -110 -84 -125 0 -6 -3 -9 -6 -5 -4 3 -26 -18 -49 -48 -23
-30 -54 -64 -69 -76 -14 -11 -24 -25 -20 -30 3 -5 0 -8 -8 -7 -7 2 -12 -3 -11
-10 2 -6 -1 -12 -6 -12 -4 0 -24 -13 -42 -30 -19 -16 -38 -30 -42 -30 -5 0 -6
-4 -3 -9 3 -5 -8 -14 -25 -21 -16 -7 -36 -22 -44 -34 -8 -11 -15 -16 -15 -11
0 6 -5 2 -11 -7 -5 -10 -14 -18 -19 -18 -5 0 -34 -17 -64 -39 -31 -21 -69 -44
-86 -51 -16 -7 -30 -17 -30 -22 0 -5 -4 -7 -9 -3 -5 3 -16 -1 -24 -9 -8 -8
-17 -12 -21 -9 -3 4 -6 1 -6 -5 0 -7 -3 -11 -7 -10 -5 1 -21 -5 -38 -12 -16
-7 -33 -13 -37 -12 -5 1 -8 -3 -8 -8 0 -5 -3 -9 -7 -9 -5 1 -10 0 -13 -1 -3
-1 -12 -3 -20 -5 -8 -2 -40 -13 -70 -24 -30 -12 -64 -23 -75 -26 -11 -2 -31
-7 -45 -10 -14 -4 -33 -7 -42 -7 -10 1 -18 -4 -18 -10 0 -5 -7 -7 -16 -4 -9 3
-21 3 -27 -1 -12 -7 -20 -8 -107 -18 -75 -8 -342 -9 -410 -1 -88 11 -115 14
-115 17 0 1 -9 3 -20 5 -11 1 -31 6 -45 9 -14 4 -35 8 -47 10 -12 2 -27 6 -32
10 -12 7 -48 16 -68 17 -7 1 -13 5 -13 9 0 7 -74 24 -76 17 -1 -1 -11 6 -23
16 -12 11 -21 16 -21 11 0 -4 -6 -2 -13 4 -8 6 -17 8 -20 4 -4 -3 -7 -2 -7 4
0 10 -36 26 -52 24 -5 -1 -8 4 -8 10 0 5 -4 7 -10 4 -5 -3 -10 -2 -10 3 0 4
-16 14 -35 22 -19 8 -35 17 -35 22 0 4 -5 8 -11 8 -5 0 -8 -4 -5 -9 3 -5 -1
-11 -9 -15 -8 -3 -15 -13 -15 -21 0 -9 -4 -13 -10 -10 -5 3 -10 -1 -10 -10 0
-9 -4 -13 -10 -10 -5 3 -10 0 -10 -8 0 -8 -7 -17 -15 -21 -8 -3 -15 -12 -15
-20 0 -8 -5 -18 -12 -22 -7 -5 -8 -3 -3 7 8 12 6 12 -8 0 -9 -7 -17 -17 -17
-21 0 -12 -139 -150 -151 -150 -6 0 -7 -4 -4 -10 3 -5 1 -10 -5 -10 -7 0 -25
-14 -41 -32 -22 -23 -27 -33 -17 -39 6 -4 16 -5 20 -3 4 3 8 0 8 -6 0 -6 4 -8
10 -5 5 3 10 2 10 -3 0 -9 50 -41 138 -89 12 -6 22 -9 22 -5 0 4 4 2 8 -5 4
-6 14 -13 22 -15 8 -2 21 -9 28 -16 7 -6 22 -12 32 -12 10 0 22 -5 25 -10 4
-6 11 -8 16 -5 5 4 9 1 9 -6 0 -7 3 -10 6 -6 3 3 20 -2 37 -12 18 -10 46 -21
62 -26 37 -10 36 -10 57 -19 9 -4 25 -9 35 -11 10 -2 19 -4 21 -5 1 -2 7 -4
12 -5 6 -1 12 -4 15 -5 3 -1 10 -4 15 -5 6 -1 11 -3 13 -5 1 -1 12 -4 25 -6
12 -2 32 -6 45 -8 12 -2 22 -5 22 -6 0 -2 36 -11 60 -14 11 -2 31 -6 45 -10
14 -4 43 -9 65 -11 22 -3 63 -8 90 -12 62 -8 422 -8 490 0 28 3 65 9 83 12 17
3 47 7 65 10 17 3 43 8 57 11 14 3 34 6 45 9 11 2 20 4 20 5 0 1 7 3 15 5 8 2
26 7 40 10 14 3 30 7 35 8 6 2 16 6 23 10 6 5 12 6 12 3 0 -5 14 -1 95 30 11
4 25 8 30 10 6 1 24 8 40 15 17 7 32 13 35 14 26 9 48 21 64 34 14 11 17 12
11 2 -5 -10 3 -8 26 5 19 10 36 22 37 27 2 4 8 5 13 1 5 -3 9 0 9 6 0 6 4 9 9
5 5 -3 17 2 25 11 9 8 16 12 16 7 0 -4 7 1 16 12 8 11 16 19 17 18 6 -7 47 11
47 20 0 6 3 8 6 4 4 -3 12 -1 20 6 32 29 44 37 44 32 0 -7 70 44 88 65 8 9 11
10 7 2 -6 -11 -3 -11 13 -1 12 7 18 17 16 21 -3 4 2 8 10 8 9 0 16 5 16 10 0
6 6 10 14 10 7 0 21 11 32 24 10 14 21 23 26 20 4 -3 8 2 8 10 0 9 3 15 8 13
4 -1 18 8 32 21 13 12 28 22 32 22 5 0 6 4 3 10 -3 5 1 10 9 10 8 0 18 5 22
12 5 7 3 8 -6 3 -9 -5 -11 -4 -6 3 4 7 14 12 22 12 8 0 14 6 14 14 0 7 8 20
18 27 15 13 16 12 3 -3 -22 -29 -8 -21 24 14 17 18 24 28 16 23 -10 -5 -12 -4
-7 3 4 7 14 12 22 12 8 0 14 5 14 10 0 6 14 24 30 40 17 17 28 30 25 30 -3 0
4 11 17 24 55 58 72 79 58 72 -8 -4 -6 1 6 11 26 23 110 148 92 137 -7 -4 -1
5 14 20 15 16 25 32 22 37 -3 5 0 9 6 9 6 0 8 5 5 10 -3 6 -1 10 4 10 6 0 11
6 11 14 0 8 4 16 8 18 11 4 98 188 104 218 2 8 5 17 8 20 12 10 48 118 43 124
-4 3 -1 6 5 6 6 0 9 7 6 15 -4 8 -1 15 4 15 6 0 11 8 11 18 0 16 8 57 11 57 1
0 3 8 6 18 2 9 6 25 8 35 3 9 5 18 6 20 2 1 4 11 5 22 1 11 4 21 5 23 3 2 8
30 14 72 2 17 5 30 6 30 1 0 4 14 6 30 1 17 6 55 10 85 4 30 7 141 7 245 1
171 -4 249 -18 340 -3 17 -8 50 -11 75 -3 25 -9 50 -14 55 -4 6 -6 18 -5 28 2
9 -1 17 -6 17 -6 0 -8 4 -5 9 4 5 2 21 -4 35 -10 27 -21 72 -22 94 -1 6 -5 12
-10 12 -4 0 -7 3 -7 8 1 4 0 9 -1 12 -1 3 -3 13 -5 23 -2 10 -7 26 -11 35 -4
9 -8 20 -9 25 -2 4 -4 9 -5 12 -1 3 -3 8 -4 13 -1 4 -7 17 -14 28 -6 12 -9 24
-6 26 2 3 -2 11 -10 17 -8 7 -12 20 -9 28 4 11 2 14 -5 9 -8 -5 -10 -2 -6 8 3
9 1 16 -5 16 -6 0 -11 3 -10 8 2 15 -14 52 -23 52 -5 0 -6 5 -3 10 3 6 1 10
-5 10 -6 0 -9 4 -5 9 3 5 -1 16 -9 24 -8 8 -12 17 -9 21 4 3 2 6 -3 6 -6 0
-16 16 -24 35 -8 19 -17 35 -22 35 -4 0 -8 6 -8 13 0 8 -9 22 -20 32 -11 10
-20 24 -20 31 0 7 -10 23 -22 35 -13 12 -16 18 -8 14 8 -4 3 5 -12 22 -16 16
-28 33 -28 38 0 9 -7 17 -63 77 -19 21 -32 40 -29 43 3 3 -2 5 -11 5 -9 0 -16
4 -14 9 3 14 -63 92 -74 86 -5 -4 -9 1 -9 9 0 8 -9 17 -20 21 -11 3 -19 11
-17 17 1 6 -8 17 -20 23 -13 7 -20 14 -17 17 3 4 -8 14 -25 24 -17 10 -31 22
-31 26 0 4 -7 8 -16 8 -8 0 -13 3 -11 8 2 4 -23 29 -57 57 -34 27 -56 42 -51
34 6 -8 1 -5 -10 6 -11 12 -37 32 -58 44 -21 13 -44 30 -52 38 -8 8 -15 11
-15 6 0 -4 -4 -3 -8 4 -4 6 -14 13 -22 15 -8 2 -21 11 -29 21 -7 10 -19 16
-26 13 -7 -2 -21 4 -30 14 -10 11 -22 17 -26 14 -5 -3 -9 0 -9 6 0 6 -4 8 -10
5 -5 -3 -10 -1 -10 5 0 6 -4 8 -10 5 -5 -3 -10 -2 -10 4 0 6 -18 16 -40 22
-22 7 -40 16 -40 21 0 4 -3 7 -7 6 -5 -1 -18 3 -29 10 -12 6 -24 8 -28 5 -3
-3 -6 -1 -6 6 0 8 -7 11 -15 7 -8 -3 -15 -1 -15 5 0 6 -4 7 -10 4 -5 -3 -10
-1 -10 5 0 6 -4 9 -9 5 -5 -3 -12 -1 -16 5 -4 6 -10 8 -15 5 -5 -3 -11 -1 -15
5 -4 6 -11 8 -16 5 -5 -4 -9 -1 -9 6 0 7 -3 10 -6 7 -3 -3 -29 3 -57 13 -29
11 -64 20 -79 21 -16 1 -28 6 -28 10 0 3 -8 7 -17 6 -10 0 -28 3 -40 6 -43 11
-68 17 -98 21 -16 3 -43 7 -60 10 -55 9 -119 16 -205 20 -84 5 -2310 12 -2314
8z m3815 -720 c13 -16 12 -17 -3 -4 -10 7 -18 15 -18 17 0 8 8 3 21 -13z"/>
<path d="M1267 4457 c-43 -24 -74 -47 -70 -52 5 -4 3 -5 -4 -1 -13 7 -103 -50
-103 -66 0 -6 -3 -8 -6 -5 -8 7 -59 -27 -91 -60 -13 -13 -23 -20 -23 -16 -1 4
-10 -3 -20 -16 -11 -13 -20 -20 -20 -16 0 3 -6 0 -14 -7 -7 -8 -32 -29 -54
-48 -23 -18 -39 -37 -36 -42 3 -5 2 -7 -3 -6 -11 4 -79 -62 -75 -74 1 -5 -2
-7 -7 -4 -4 3 -26 -15 -47 -40 -22 -25 -49 -58 -61 -72 -12 -14 -19 -30 -16
-35 3 -6 1 -7 -5 -3 -6 3 -23 -12 -39 -34 -15 -23 -42 -61 -60 -84 -18 -24
-29 -46 -26 -50 4 -3 2 -6 -4 -6 -12 0 -56 -68 -56 -87 0 -7 -3 -13 -7 -13
-10 0 -63 -100 -53 -100 4 0 0 -5 -9 -11 -10 -5 -18 -18 -18 -27 0 -10 -4 -22
-9 -27 -18 -19 -82 -186 -75 -197 4 -7 3 -8 -4 -4 -7 4 -13 1 -13 -8 -2 -17
-5 -33 -9 -41 -1 -3 -3 -8 -5 -12 -1 -5 -5 -15 -8 -23 -8 -18 -47 -174 -53
-210 -2 -14 -10 -61 -18 -105 -15 -93 -14 -83 -21 -200 -10 -168 -4 -328 16
-465 14 -98 69 -332 80 -344 5 -6 9 -18 9 -28 0 -10 4 -26 9 -36 17 -30 28
-64 30 -88 0 -8 4 -13 8 -11 5 3 9 -6 10 -21 0 -14 8 -29 17 -34 9 -5 14 -13
11 -18 -8 -13 125 -268 148 -282 6 -4 8 -8 2 -8 -6 0 -5 -3 1 -8 6 -4 19 -22
28 -40 9 -18 20 -30 25 -28 4 3 8 -1 8 -8 0 -15 44 -76 55 -76 4 0 8 -5 8 -11
0 -17 52 -74 64 -71 6 2 8 0 4 -3 -10 -10 62 -96 73 -89 5 3 8 0 7 -8 -2 -7 3
-12 10 -10 8 1 11 -1 8 -6 -3 -5 22 -33 55 -63 34 -30 73 -66 87 -80 39 -37
122 -101 122 -94 0 3 15 -8 33 -24 17 -17 38 -31 45 -31 6 0 12 -4 12 -8 0 -5
12 -15 28 -23 15 -7 38 -21 51 -31 13 -10 27 -15 32 -12 5 3 9 1 9 -5 0 -8
256 -141 273 -141 3 0 16 -4 29 -9 13 -5 26 -8 29 -7 3 0 12 -4 20 -10 12 -10
45 -21 74 -24 6 -1 16 -6 23 -12 6 -6 12 -8 12 -4 0 3 16 0 35 -8 19 -8 35
-13 35 -10 0 3 8 0 18 -5 9 -5 35 -12 57 -16 22 -4 51 -9 65 -12 14 -3 34 -6
45 -8 11 -1 27 -5 35 -8 8 -3 22 -5 30 -5 8 -1 33 -3 55 -6 93 -14 372 -21
465 -11 67 6 137 16 161 21 13 3 33 6 44 8 43 7 141 27 155 33 8 3 19 5 24 4
4 -1 14 3 20 9 7 5 16 7 19 3 4 -3 7 -1 7 6 0 7 4 10 8 7 10 -6 69 12 177 54
44 17 88 34 98 37 9 3 17 10 17 16 0 6 3 7 6 4 7 -7 87 33 92 46 2 4 7 5 11 3
12 -7 152 80 144 89 -5 4 -3 5 3 2 11 -7 81 36 101 62 7 9 13 12 13 8 0 -8 95
62 140 104 14 13 45 39 68 57 23 19 39 39 36 44 -4 7 -2 8 5 4 7 -4 15 2 20
16 6 13 10 19 10 13 1 -5 25 17 55 50 30 32 52 63 49 69 -3 5 -1 6 5 2 6 -4
19 5 29 21 10 15 28 39 41 52 33 36 163 231 154 231 -4 0 -2 4 3 8 10 6 85
129 85 137 0 3 13 25 30 51 16 26 27 51 23 57 -3 6 -1 7 4 4 6 -4 16 5 22 21
6 15 22 45 36 67 13 21 21 44 18 50 -4 5 -2 7 2 2 9 -7 57 68 58 91 0 6 4 12
8 12 5 0 20 21 34 48 14 26 36 65 49 87 13 22 22 43 19 48 -2 4 3 10 12 13 10
4 14 13 10 22 -3 9 -3 13 1 9 7 -7 65 85 63 99 0 4 4 10 9 13 9 6 43 66 42 76
0 3 9 15 19 27 11 11 18 25 15 30 -3 4 -1 8 3 8 5 0 20 21 33 48 14 26 27 49
30 52 11 9 124 215 121 219 -1 2 1 7 6 10 13 9 74 115 73 125 -1 5 2 12 7 15
12 8 83 129 83 142 0 5 5 9 10 9 6 0 10 6 10 14 0 7 7 19 15 26 8 7 12 16 9
21 -3 5 0 9 6 9 6 0 8 5 5 10 -3 6 -3 10 2 10 13 0 44 61 36 73 -3 7 -3 9 2 5
11 -11 38 29 29 44 -4 6 -3 8 3 5 9 -6 30 25 31 47 0 5 4 12 9 15 17 11 53 78
46 84 -3 4 -1 7 6 7 7 0 9 5 6 10 -3 6 -2 10 4 10 10 0 65 94 61 106 -1 4 5
11 14 16 9 5 16 13 16 18 0 5 18 39 40 75 22 36 37 65 33 65 -4 0 1 6 11 13 9
7 18 22 19 34 0 12 4 20 8 17 8 -5 25 35 21 49 -1 5 1 6 6 3 8 -5 57 82 54 97
-1 4 2 7 6 7 5 0 14 12 20 26 7 14 8 23 2 19 -5 -3 -10 -1 -10 5 0 6 -4 9 -9
5 -5 -3 -13 0 -16 6 -4 5 -13 8 -20 5 -8 -3 -15 -1 -17 4 -6 19 -218 72 -338
86 -128 14 -110 22 -165 -74 -27 -48 -59 -103 -71 -122 -40 -65 -75 -130 -73
-136 0 -4 -3 -10 -8 -13 -5 -3 -30 -42 -55 -86 -24 -44 -80 -141 -123 -215
-43 -74 -78 -141 -78 -147 0 -7 -2 -11 -5 -8 -9 8 -82 -127 -75 -139 3 -6 3
-8 -2 -4 -8 8 -152 -231 -147 -244 1 -5 -3 -8 -9 -8 -5 0 -8 -4 -5 -9 4 -5 3
-11 -2 -13 -12 -5 -73 -108 -64 -108 4 0 2 -4 -3 -8 -14 -9 -95 -148 -95 -161
0 -6 -3 -11 -8 -11 -8 0 -43 -60 -42 -73 0 -4 -6 -15 -15 -23 -8 -9 -15 -21
-15 -29 0 -7 -4 -15 -8 -17 -5 -1 -33 -46 -63 -98 -30 -52 -58 -103 -64 -112
-5 -9 -17 -29 -26 -45 -8 -15 -23 -40 -33 -55 -10 -16 -14 -28 -10 -28 5 0 4
-4 -2 -8 -13 -7 -185 -302 -178 -302 3 0 0 -6 -6 -12 -6 -7 -29 -42 -52 -78
-22 -36 -53 -84 -69 -106 -16 -23 -25 -45 -21 -49 4 -3 2 -5 -4 -3 -6 2 -35
-26 -64 -62 -30 -36 -61 -71 -70 -78 -10 -9 -10 -11 -1 -6 9 5 12 3 7 -5 -4
-6 -11 -9 -15 -6 -11 6 -53 -40 -44 -49 5 -4 3 -6 -2 -4 -6 2 -17 -3 -25 -10
-44 -38 -67 -56 -87 -69 -13 -8 -20 -20 -16 -26 3 -6 1 -7 -5 -3 -7 4 -12 2
-12 -3 0 -6 -3 -10 -7 -9 -14 4 -113 -68 -105 -76 4 -4 2 -7 -3 -6 -19 4 -34
0 -47 -13 -17 -16 -209 -107 -226 -107 -7 0 -10 -5 -6 -12 4 -6 3 -8 -2 -5 -6
3 -48 -7 -95 -23 -47 -16 -114 -34 -150 -41 -35 -8 -66 -16 -69 -19 -3 -3 -16
-5 -30 -6 -14 0 -50 -4 -80 -8 -71 -9 -331 -10 -395 -2 -73 10 -195 34 -234
45 -19 6 -38 8 -42 5 -5 -3 -9 0 -9 5 0 6 -7 11 -16 11 -22 0 -186 64 -246 96
-27 14 -48 23 -48 19 0 -3 -10 4 -22 15 -12 11 -28 18 -36 15 -7 -2 -11 -1 -8
3 5 9 -63 47 -77 44 -5 -2 -6 1 -4 5 3 5 -7 17 -21 27 -16 13 -23 14 -18 5 4
-8 -1 -4 -10 8 -9 13 -21 23 -26 23 -5 0 -15 6 -22 13 -7 6 -37 32 -66 57 -29
25 -65 57 -78 72 -14 15 -29 25 -35 21 -6 -3 -7 -2 -4 4 3 5 -12 26 -34 46
-22 20 -36 37 -32 37 7 0 -4 13 -72 82 -16 16 -30 36 -31 43 -2 11 -39 70 -54
85 -42 42 -200 418 -200 475 0 8 -3 15 -7 15 -5 0 -9 12 -9 28 -1 15 -7 54
-13 87 -24 127 -32 358 -16 480 4 33 9 76 11 95 1 19 3 35 4 35 1 0 12 43 26
95 27 105 28 108 38 132 4 9 8 22 10 30 1 7 5 19 9 26 5 6 5 17 1 24 -5 7 -3
8 6 3 10 -6 12 -4 7 8 -3 10 -2 17 3 17 6 0 10 5 10 11 0 7 20 51 45 99 24 48
41 91 37 95 -4 5 -2 5 4 2 6 -3 18 8 27 26 18 35 39 69 47 77 13 13 57 76 58
83 1 4 15 21 32 37 16 15 30 31 30 34 0 4 18 23 40 43 21 20 36 41 33 46 -3 6
-1 7 6 3 6 -4 14 1 19 13 4 11 10 19 13 18 6 -2 91 68 141 116 10 9 19 16 21
15 6 -7 46 30 39 37 -4 5 -2 6 3 3 12 -7 131 66 128 78 -8 29 -79 230 -83 234
-3 3 -5 10 -6 15 -1 25 -29 135 -34 135 -3 0 -6 17 -8 38 -3 56 -8 76 -18 79
-5 1 -44 -17 -87 -40z"/>
</g>
</svg>
